<mxfile host="65bd71144e">
    <diagram name="Page 1" id="0">
        <mxGraphModel dx="2182" dy="1000" grid="1" gridSize="15" guides="1" tooltips="1" connect="1" arrows="1" fold="1" page="0" pageScale="1" pageWidth="850" pageHeight="1100" background="#FFFFFF" math="0" shadow="0">
            <root>
                <mxCell id="0"/>
                <mxCell id="1" parent="0"/>
                <mxCell id="2" value="Pokemon Stat" style="html=1;overflow=block;blockSpacing=1;swimlane;resizeParent=1;resizeParentMax=0;resizeLast=0;collapsible=0;marginBottom=0;fontStyle=0;swimlaneFillColor=#ffffff;startSize=30;whiteSpace=wrap;fontSize=13;fillColor=#e0e0e0;spacing=0;strokeColor=#282c33;strokeOpacity=100;fillOpacity=100;rounded=1;absoluteArcSize=1;arcSize=7.5;strokeWidth=0.8;" parent="1" vertex="1">
                    <mxGeometry x="15" y="229" width="270" height="75" as="geometry"/>
                </mxCell>
                <mxCell id="3" value="PK" style="strokeColor=none;part=1;resizeHeight=0;align=center;verticalAlign=top;spacingLeft=4;spacingRight=4;overflow=hidden;rotatable=0;points=[[0,0.5],[1,0.5]];portConstraint=eastwest;swimlaneFillColor=#ffffff;whiteSpace=wrap;fontSize=13;fillColor=none;strokeOpacity=100;fillOpacity=100;spacing=0;rounded=1;absoluteArcSize=1;arcSize=7.5;strokeWidth=0.8;" parent="2" vertex="1">
                    <mxGeometry y="30" width="30.34476857323039" as="geometry"/>
                </mxCell>
                <mxCell id="4" value="pokemon_id" style="shape=partialRectangle;top=0;right=0;bottom=0;part=1;resizeHeight=0;verticalAlign=top;spacingLeft=4;spacingRight=4;overflow=hidden;rotatable=0;points=[[0,0.5],[1,0.5]];portConstraint=eastwest;swimlaneFillColor=#ffffff;whiteSpace=wrap;fontSize=13;align=center;fillColor=none;strokeOpacity=100;fillOpacity=100;spacing=0;strokeColor=#282c33;rounded=1;absoluteArcSize=1;arcSize=7.5;strokeWidth=0.8;" parent="2" vertex="1">
                    <mxGeometry x="30.34476857323039" y="30" width="118.1552314267696" height="24" as="geometry"/>
                </mxCell>
                <mxCell id="5" value="int" style="shape=partialRectangle;top=0;right=0;bottom=0;part=1;resizeHeight=0;verticalAlign=top;spacingLeft=4;spacingRight=4;overflow=hidden;rotatable=0;points=[[0,0.5],[1,0.5]];portConstraint=eastwest;swimlaneFillColor=#ffffff;whiteSpace=wrap;fontSize=13;align=center;fillColor=none;strokeOpacity=100;fillOpacity=100;spacing=0;strokeColor=#282c33;rounded=1;absoluteArcSize=1;arcSize=7.5;strokeWidth=0.8;" parent="2" vertex="1">
                    <mxGeometry x="148.5" y="30" width="121.5" height="24" as="geometry"/>
                </mxCell>
                <mxCell id="6" value="PK" style="strokeColor=none;part=1;resizeHeight=0;align=center;verticalAlign=top;spacingLeft=4;spacingRight=4;overflow=hidden;rotatable=0;points=[[0,0.5],[1,0.5]];portConstraint=eastwest;swimlaneFillColor=#ffffff;whiteSpace=wrap;fontSize=13;fillColor=none;strokeOpacity=100;fillOpacity=100;spacing=0;rounded=1;absoluteArcSize=1;arcSize=7.5;strokeWidth=0.8;" parent="2" vertex="1">
                    <mxGeometry width="30.34476857323039" as="geometry"/>
                </mxCell>
                <mxCell id="7" value="stat_id" style="shape=partialRectangle;top=0;right=0;bottom=0;part=1;resizeHeight=0;verticalAlign=top;spacingLeft=4;spacingRight=4;overflow=hidden;rotatable=0;points=[[0,0.5],[1,0.5]];portConstraint=eastwest;swimlaneFillColor=#ffffff;whiteSpace=wrap;fontSize=13;align=center;fillColor=none;strokeOpacity=100;fillOpacity=100;spacing=0;strokeColor=#282c33;rounded=1;absoluteArcSize=1;arcSize=7.5;strokeWidth=0.8;" parent="2" vertex="1">
                    <mxGeometry x="30.34476857323039" width="118.1552314267696" height="24" as="geometry"/>
                </mxCell>
                <mxCell id="8" value="int" style="shape=partialRectangle;top=0;right=0;bottom=0;part=1;resizeHeight=0;verticalAlign=top;spacingLeft=4;spacingRight=4;overflow=hidden;rotatable=0;points=[[0,0.5],[1,0.5]];portConstraint=eastwest;swimlaneFillColor=#ffffff;whiteSpace=wrap;fontSize=13;align=center;fillColor=none;strokeOpacity=100;fillOpacity=100;spacing=0;strokeColor=#282c33;rounded=1;absoluteArcSize=1;arcSize=7.5;strokeWidth=0.8;" parent="2" vertex="1">
                    <mxGeometry x="148.5" width="121.5" height="24" as="geometry"/>
                </mxCell>
                <mxCell id="9" value="Pokemon" style="html=1;overflow=block;blockSpacing=1;swimlane;resizeParent=1;resizeParentMax=0;resizeLast=0;collapsible=0;marginBottom=0;fontStyle=0;swimlaneFillColor=#ffffff;startSize=30;whiteSpace=wrap;fontSize=13;fillColor=#e0e0e0;spacing=0;strokeColor=#282c33;strokeOpacity=100;fillOpacity=100;rounded=1;absoluteArcSize=1;arcSize=7.5;strokeWidth=0.8;" parent="1" vertex="1">
                    <mxGeometry x="-150" y="-15" width="285" height="77" as="geometry"/>
                </mxCell>
                <mxCell id="10" value="PK" style="strokeColor=none;part=1;resizeHeight=0;align=center;verticalAlign=top;spacingLeft=4;spacingRight=4;overflow=hidden;rotatable=0;points=[[0,0.5],[1,0.5]];portConstraint=eastwest;swimlaneFillColor=#ffffff;whiteSpace=wrap;fontSize=13;fillColor=none;strokeOpacity=100;fillOpacity=100;spacing=0;rounded=1;absoluteArcSize=1;arcSize=7.5;strokeWidth=0.8;" parent="9" vertex="1">
                    <mxGeometry y="30" width="35.3447685732304" as="geometry"/>
                </mxCell>
                <mxCell id="11" value="pokemon_id " style="shape=partialRectangle;top=0;right=0;bottom=0;part=1;resizeHeight=0;verticalAlign=top;spacingLeft=4;spacingRight=4;overflow=hidden;rotatable=0;points=[[0,0.5],[1,0.5]];portConstraint=eastwest;swimlaneFillColor=#ffffff;whiteSpace=wrap;fontSize=13;align=center;fillColor=none;strokeOpacity=100;fillOpacity=100;spacing=0;strokeColor=#282c33;rounded=1;absoluteArcSize=1;arcSize=7.5;strokeWidth=0.8;" parent="9" vertex="1">
                    <mxGeometry x="35.3447685732304" y="30" width="123.15523142676959" height="24" as="geometry"/>
                </mxCell>
                <mxCell id="12" value="int" style="shape=partialRectangle;top=0;right=0;bottom=0;part=1;resizeHeight=0;verticalAlign=top;spacingLeft=4;spacingRight=4;overflow=hidden;rotatable=0;points=[[0,0.5],[1,0.5]];portConstraint=eastwest;swimlaneFillColor=#ffffff;whiteSpace=wrap;fontSize=13;align=center;fillColor=none;strokeOpacity=100;fillOpacity=100;spacing=0;strokeColor=#282c33;rounded=1;absoluteArcSize=1;arcSize=7.5;strokeWidth=0.8;" parent="9" vertex="1">
                    <mxGeometry x="158.5" y="30" width="126.50000000000001" height="24" as="geometry"/>
                </mxCell>
                <mxCell id="13" value="" style="strokeColor=none;part=1;resizeHeight=0;align=center;verticalAlign=top;spacingLeft=4;spacingRight=4;overflow=hidden;rotatable=0;points=[[0,0.5],[1,0.5]];portConstraint=eastwest;swimlaneFillColor=#ffffff;whiteSpace=wrap;fontSize=13;fillColor=none;strokeOpacity=100;fillOpacity=100;spacing=0;rounded=1;absoluteArcSize=1;arcSize=7.5;strokeWidth=0.8;" parent="9" vertex="1">
                    <mxGeometry width="35.3447685732304" as="geometry"/>
                </mxCell>
                <mxCell id="14" value="name" style="shape=partialRectangle;top=0;right=0;bottom=0;part=1;resizeHeight=0;verticalAlign=top;spacingLeft=4;spacingRight=4;overflow=hidden;rotatable=0;points=[[0,0.5],[1,0.5]];portConstraint=eastwest;swimlaneFillColor=#ffffff;whiteSpace=wrap;fontSize=13;align=center;fillColor=none;strokeOpacity=100;fillOpacity=100;spacing=0;strokeColor=#282c33;rounded=1;absoluteArcSize=1;arcSize=7.5;strokeWidth=0.8;" parent="9" vertex="1">
                    <mxGeometry x="35.3447685732304" width="123.15523142676959" height="24" as="geometry"/>
                </mxCell>
                <mxCell id="15" value="string" style="shape=partialRectangle;top=0;right=0;bottom=0;part=1;resizeHeight=0;verticalAlign=top;spacingLeft=4;spacingRight=4;overflow=hidden;rotatable=0;points=[[0,0.5],[1,0.5]];portConstraint=eastwest;swimlaneFillColor=#ffffff;whiteSpace=wrap;fontSize=13;align=center;fillColor=none;strokeOpacity=100;fillOpacity=100;spacing=0;strokeColor=#282c33;rounded=1;absoluteArcSize=1;arcSize=7.5;strokeWidth=0.8;" parent="9" vertex="1">
                    <mxGeometry x="158.5" width="126.50000000000001" height="24" as="geometry"/>
                </mxCell>
                <mxCell id="16" value="Height" style="html=1;overflow=block;blockSpacing=1;swimlane;resizeParent=1;resizeParentMax=0;resizeLast=0;collapsible=0;marginBottom=0;fontStyle=0;swimlaneFillColor=#ffffff;startSize=30;whiteSpace=wrap;fontSize=13;fillColor=#e0e0e0;spacing=0;strokeColor=#282c33;strokeOpacity=100;fillOpacity=100;rounded=1;absoluteArcSize=1;arcSize=7.5;strokeWidth=0.8;" parent="1" vertex="1">
                    <mxGeometry x="-885" y="240" width="255" height="53" as="geometry"/>
                </mxCell>
                <mxCell id="17" value="PK" style="strokeColor=none;part=1;resizeHeight=0;align=center;verticalAlign=top;spacingLeft=4;spacingRight=4;overflow=hidden;rotatable=0;points=[[0,0.5],[1,0.5]];portConstraint=eastwest;swimlaneFillColor=#ffffff;whiteSpace=wrap;fontSize=13;fillColor=none;strokeOpacity=100;fillOpacity=100;spacing=0;rounded=1;absoluteArcSize=1;arcSize=7.5;strokeWidth=0.8;" parent="16" vertex="1">
                    <mxGeometry y="30" width="25.344768573230393" as="geometry"/>
                </mxCell>
                <mxCell id="18" value="height_id" style="shape=partialRectangle;top=0;right=0;bottom=0;part=1;resizeHeight=0;verticalAlign=top;spacingLeft=4;spacingRight=4;overflow=hidden;rotatable=0;points=[[0,0.5],[1,0.5]];portConstraint=eastwest;swimlaneFillColor=#ffffff;whiteSpace=wrap;fontSize=13;align=center;fillColor=none;strokeOpacity=100;fillOpacity=100;spacing=0;strokeColor=#282c33;rounded=1;absoluteArcSize=1;arcSize=7.5;strokeWidth=0.8;" parent="16" vertex="1">
                    <mxGeometry x="25.344768573230393" y="30" width="113.1552314267696" height="24" as="geometry"/>
                </mxCell>
                <mxCell id="19" value="int" style="shape=partialRectangle;top=0;right=0;bottom=0;part=1;resizeHeight=0;verticalAlign=top;spacingLeft=4;spacingRight=4;overflow=hidden;rotatable=0;points=[[0,0.5],[1,0.5]];portConstraint=eastwest;swimlaneFillColor=#ffffff;whiteSpace=wrap;fontSize=13;align=center;fillColor=none;strokeOpacity=100;fillOpacity=100;spacing=0;strokeColor=#282c33;rounded=1;absoluteArcSize=1;arcSize=7.5;strokeWidth=0.8;" parent="16" vertex="1">
                    <mxGeometry x="138.5" y="30" width="116.5" height="24" as="geometry"/>
                </mxCell>
                <mxCell id="20" value="Weight" style="html=1;overflow=block;blockSpacing=1;swimlane;resizeParent=1;resizeParentMax=0;resizeLast=0;collapsible=0;marginBottom=0;fontStyle=0;swimlaneFillColor=#ffffff;startSize=30;whiteSpace=wrap;fontSize=13;fillColor=#e0e0e0;spacing=0;strokeColor=#282c33;strokeOpacity=100;fillOpacity=100;rounded=1;absoluteArcSize=1;arcSize=7.5;strokeWidth=0.8;" parent="1" vertex="1">
                    <mxGeometry x="-600" y="240" width="255" height="53" as="geometry"/>
                </mxCell>
                <mxCell id="21" value="PK" style="strokeColor=none;part=1;resizeHeight=0;align=center;verticalAlign=top;spacingLeft=4;spacingRight=4;overflow=hidden;rotatable=0;points=[[0,0.5],[1,0.5]];portConstraint=eastwest;swimlaneFillColor=#ffffff;whiteSpace=wrap;fontSize=13;fillColor=none;strokeOpacity=100;fillOpacity=100;spacing=0;rounded=1;absoluteArcSize=1;arcSize=7.5;strokeWidth=0.8;" parent="20" vertex="1">
                    <mxGeometry y="30" width="25.344768573230393" as="geometry"/>
                </mxCell>
                <mxCell id="22" value="weight_id" style="shape=partialRectangle;top=0;right=0;bottom=0;part=1;resizeHeight=0;verticalAlign=top;spacingLeft=4;spacingRight=4;overflow=hidden;rotatable=0;points=[[0,0.5],[1,0.5]];portConstraint=eastwest;swimlaneFillColor=#ffffff;whiteSpace=wrap;fontSize=13;align=center;fillColor=none;strokeOpacity=100;fillOpacity=100;spacing=0;strokeColor=#282c33;rounded=1;absoluteArcSize=1;arcSize=7.5;strokeWidth=0.8;" parent="20" vertex="1">
                    <mxGeometry x="25.344768573230393" y="30" width="113.1552314267696" height="24" as="geometry"/>
                </mxCell>
                <mxCell id="23" value="int" style="shape=partialRectangle;top=0;right=0;bottom=0;part=1;resizeHeight=0;verticalAlign=top;spacingLeft=4;spacingRight=4;overflow=hidden;rotatable=0;points=[[0,0.5],[1,0.5]];portConstraint=eastwest;swimlaneFillColor=#ffffff;whiteSpace=wrap;fontSize=13;align=center;fillColor=none;strokeOpacity=100;fillOpacity=100;spacing=0;strokeColor=#282c33;rounded=1;absoluteArcSize=1;arcSize=7.5;strokeWidth=0.8;" parent="20" vertex="1">
                    <mxGeometry x="138.5" y="30" width="116.5" height="24" as="geometry"/>
                </mxCell>
                <mxCell id="24" value="Pokemon Type" style="html=1;overflow=block;blockSpacing=1;swimlane;resizeParent=1;resizeParentMax=0;resizeLast=0;collapsible=0;marginBottom=0;fontStyle=0;swimlaneFillColor=#ffffff;startSize=30;whiteSpace=wrap;fontSize=13;fillColor=#e0e0e0;spacing=0;strokeColor=#282c33;strokeOpacity=100;fillOpacity=100;rounded=1;absoluteArcSize=1;arcSize=7.5;strokeWidth=0.8;" parent="1" vertex="1">
                    <mxGeometry x="-300" y="229" width="270" height="75" as="geometry"/>
                </mxCell>
                <mxCell id="25" value="PK" style="strokeColor=none;part=1;resizeHeight=0;align=center;verticalAlign=top;spacingLeft=4;spacingRight=4;overflow=hidden;rotatable=0;points=[[0,0.5],[1,0.5]];portConstraint=eastwest;swimlaneFillColor=#ffffff;whiteSpace=wrap;fontSize=13;fillColor=none;strokeOpacity=100;fillOpacity=100;spacing=0;rounded=1;absoluteArcSize=1;arcSize=7.5;strokeWidth=0.8;" parent="24" vertex="1">
                    <mxGeometry y="30" width="30.34476857323039" as="geometry"/>
                </mxCell>
                <mxCell id="26" value="pokemon_id" style="shape=partialRectangle;top=0;right=0;bottom=0;part=1;resizeHeight=0;verticalAlign=top;spacingLeft=4;spacingRight=4;overflow=hidden;rotatable=0;points=[[0,0.5],[1,0.5]];portConstraint=eastwest;swimlaneFillColor=#ffffff;whiteSpace=wrap;fontSize=13;align=center;fillColor=none;strokeOpacity=100;fillOpacity=100;spacing=0;strokeColor=#282c33;rounded=1;absoluteArcSize=1;arcSize=7.5;strokeWidth=0.8;" parent="24" vertex="1">
                    <mxGeometry x="30.34476857323039" y="30" width="118.1552314267696" height="24" as="geometry"/>
                </mxCell>
                <mxCell id="27" value="int" style="shape=partialRectangle;top=0;right=0;bottom=0;part=1;resizeHeight=0;verticalAlign=top;spacingLeft=4;spacingRight=4;overflow=hidden;rotatable=0;points=[[0,0.5],[1,0.5]];portConstraint=eastwest;swimlaneFillColor=#ffffff;whiteSpace=wrap;fontSize=13;align=center;fillColor=none;strokeOpacity=100;fillOpacity=100;spacing=0;strokeColor=#282c33;rounded=1;absoluteArcSize=1;arcSize=7.5;strokeWidth=0.8;" parent="24" vertex="1">
                    <mxGeometry x="148.5" y="30" width="121.5" height="24" as="geometry"/>
                </mxCell>
                <mxCell id="28" value="PK" style="strokeColor=none;part=1;resizeHeight=0;align=center;verticalAlign=top;spacingLeft=4;spacingRight=4;overflow=hidden;rotatable=0;points=[[0,0.5],[1,0.5]];portConstraint=eastwest;swimlaneFillColor=#ffffff;whiteSpace=wrap;fontSize=13;fillColor=none;strokeOpacity=100;fillOpacity=100;spacing=0;rounded=1;absoluteArcSize=1;arcSize=7.5;strokeWidth=0.8;" parent="24" vertex="1">
                    <mxGeometry width="30.34476857323039" as="geometry"/>
                </mxCell>
                <mxCell id="29" value="type_id" style="shape=partialRectangle;top=0;right=0;bottom=0;part=1;resizeHeight=0;verticalAlign=top;spacingLeft=4;spacingRight=4;overflow=hidden;rotatable=0;points=[[0,0.5],[1,0.5]];portConstraint=eastwest;swimlaneFillColor=#ffffff;whiteSpace=wrap;fontSize=13;align=center;fillColor=none;strokeOpacity=100;fillOpacity=100;spacing=0;strokeColor=#282c33;rounded=1;absoluteArcSize=1;arcSize=7.5;strokeWidth=0.8;" parent="24" vertex="1">
                    <mxGeometry x="30.34476857323039" width="118.1552314267696" height="24" as="geometry"/>
                </mxCell>
                <mxCell id="30" value="int" style="shape=partialRectangle;top=0;right=0;bottom=0;part=1;resizeHeight=0;verticalAlign=top;spacingLeft=4;spacingRight=4;overflow=hidden;rotatable=0;points=[[0,0.5],[1,0.5]];portConstraint=eastwest;swimlaneFillColor=#ffffff;whiteSpace=wrap;fontSize=13;align=center;fillColor=none;strokeOpacity=100;fillOpacity=100;spacing=0;strokeColor=#282c33;rounded=1;absoluteArcSize=1;arcSize=7.5;strokeWidth=0.8;" parent="24" vertex="1">
                    <mxGeometry x="148.5" width="121.5" height="24" as="geometry"/>
                </mxCell>
                <mxCell id="31" value="Pokemon Number" style="html=1;overflow=block;blockSpacing=1;swimlane;resizeParent=1;resizeParentMax=0;resizeLast=0;collapsible=0;marginBottom=0;fontStyle=0;swimlaneFillColor=#ffffff;startSize=30;whiteSpace=wrap;fontSize=13;fillColor=#e0e0e0;spacing=0;strokeColor=#282c33;strokeOpacity=100;fillOpacity=100;rounded=1;absoluteArcSize=1;arcSize=7.5;strokeWidth=0.8;" parent="1" vertex="1">
                    <mxGeometry x="322" y="229" width="270" height="75" as="geometry"/>
                </mxCell>
                <mxCell id="32" value="PK" style="strokeColor=none;part=1;resizeHeight=0;align=center;verticalAlign=top;spacingLeft=4;spacingRight=4;overflow=hidden;rotatable=0;points=[[0,0.5],[1,0.5]];portConstraint=eastwest;swimlaneFillColor=#ffffff;whiteSpace=wrap;fontSize=13;fillColor=none;strokeOpacity=100;fillOpacity=100;spacing=0;rounded=1;absoluteArcSize=1;arcSize=7.5;strokeWidth=0.8;" parent="31" vertex="1">
                    <mxGeometry y="30" width="30.34476857323039" as="geometry"/>
                </mxCell>
                <mxCell id="33" value="pokemon_id" style="shape=partialRectangle;top=0;right=0;bottom=0;part=1;resizeHeight=0;verticalAlign=top;spacingLeft=4;spacingRight=4;overflow=hidden;rotatable=0;points=[[0,0.5],[1,0.5]];portConstraint=eastwest;swimlaneFillColor=#ffffff;whiteSpace=wrap;fontSize=13;align=center;fillColor=none;strokeOpacity=100;fillOpacity=100;spacing=0;strokeColor=#282c33;rounded=1;absoluteArcSize=1;arcSize=7.5;strokeWidth=0.8;" parent="31" vertex="1">
                    <mxGeometry x="30.34476857323039" y="30" width="118.1552314267696" height="24" as="geometry"/>
                </mxCell>
                <mxCell id="34" value="int" style="shape=partialRectangle;top=0;right=0;bottom=0;part=1;resizeHeight=0;verticalAlign=top;spacingLeft=4;spacingRight=4;overflow=hidden;rotatable=0;points=[[0,0.5],[1,0.5]];portConstraint=eastwest;swimlaneFillColor=#ffffff;whiteSpace=wrap;fontSize=13;align=center;fillColor=none;strokeOpacity=100;fillOpacity=100;spacing=0;strokeColor=#282c33;rounded=1;absoluteArcSize=1;arcSize=7.5;strokeWidth=0.8;" parent="31" vertex="1">
                    <mxGeometry x="148.5" y="30" width="121.5" height="24" as="geometry"/>
                </mxCell>
                <mxCell id="35" value="PK" style="strokeColor=none;part=1;resizeHeight=0;align=center;verticalAlign=top;spacingLeft=4;spacingRight=4;overflow=hidden;rotatable=0;points=[[0,0.5],[1,0.5]];portConstraint=eastwest;swimlaneFillColor=#ffffff;whiteSpace=wrap;fontSize=13;fillColor=none;strokeOpacity=100;fillOpacity=100;spacing=0;rounded=1;absoluteArcSize=1;arcSize=7.5;strokeWidth=0.8;" parent="31" vertex="1">
                    <mxGeometry width="30.34476857323039" as="geometry"/>
                </mxCell>
                <mxCell id="36" value="dex_id" style="shape=partialRectangle;top=0;right=0;bottom=0;part=1;resizeHeight=0;verticalAlign=top;spacingLeft=4;spacingRight=4;overflow=hidden;rotatable=0;points=[[0,0.5],[1,0.5]];portConstraint=eastwest;swimlaneFillColor=#ffffff;whiteSpace=wrap;fontSize=13;align=center;fillColor=none;strokeOpacity=100;fillOpacity=100;spacing=0;strokeColor=#282c33;rounded=1;absoluteArcSize=1;arcSize=7.5;strokeWidth=0.8;" parent="31" vertex="1">
                    <mxGeometry x="30.34476857323039" width="118.1552314267696" height="24" as="geometry"/>
                </mxCell>
                <mxCell id="37" value="int" style="shape=partialRectangle;top=0;right=0;bottom=0;part=1;resizeHeight=0;verticalAlign=top;spacingLeft=4;spacingRight=4;overflow=hidden;rotatable=0;points=[[0,0.5],[1,0.5]];portConstraint=eastwest;swimlaneFillColor=#ffffff;whiteSpace=wrap;fontSize=13;align=center;fillColor=none;strokeOpacity=100;fillOpacity=100;spacing=0;strokeColor=#282c33;rounded=1;absoluteArcSize=1;arcSize=7.5;strokeWidth=0.8;" parent="31" vertex="1">
                    <mxGeometry x="148.5" width="121.5" height="24" as="geometry"/>
                </mxCell>
                <mxCell id="38" value="Evolutions" style="html=1;overflow=block;blockSpacing=1;swimlane;resizeParent=1;resizeParentMax=0;resizeLast=0;collapsible=0;marginBottom=0;fontStyle=0;swimlaneFillColor=#ffffff;startSize=30;whiteSpace=wrap;fontSize=13;fillColor=#e0e0e0;spacing=0;strokeColor=#282c33;strokeOpacity=100;fillOpacity=100;rounded=1;absoluteArcSize=1;arcSize=7.5;strokeWidth=0.8;" parent="1" vertex="1">
                    <mxGeometry x="645" y="229" width="270" height="75" as="geometry"/>
                </mxCell>
                <mxCell id="39" value="PK" style="strokeColor=none;part=1;resizeHeight=0;align=center;verticalAlign=top;spacingLeft=4;spacingRight=4;overflow=hidden;rotatable=0;points=[[0,0.5],[1,0.5]];portConstraint=eastwest;swimlaneFillColor=#ffffff;whiteSpace=wrap;fontSize=13;fillColor=none;strokeOpacity=100;fillOpacity=100;spacing=0;rounded=1;absoluteArcSize=1;arcSize=7.5;strokeWidth=0.8;" parent="38" vertex="1">
                    <mxGeometry y="30" width="30.34476857323039" as="geometry"/>
                </mxCell>
                <mxCell id="40" value="pokemon_id" style="shape=partialRectangle;top=0;right=0;bottom=0;part=1;resizeHeight=0;verticalAlign=top;spacingLeft=4;spacingRight=4;overflow=hidden;rotatable=0;points=[[0,0.5],[1,0.5]];portConstraint=eastwest;swimlaneFillColor=#ffffff;whiteSpace=wrap;fontSize=13;align=center;fillColor=none;strokeOpacity=100;fillOpacity=100;spacing=0;strokeColor=#282c33;rounded=1;absoluteArcSize=1;arcSize=7.5;strokeWidth=0.8;" parent="38" vertex="1">
                    <mxGeometry x="30.34476857323039" y="30" width="118.1552314267696" height="24" as="geometry"/>
                </mxCell>
                <mxCell id="41" value="int" style="shape=partialRectangle;top=0;right=0;bottom=0;part=1;resizeHeight=0;verticalAlign=top;spacingLeft=4;spacingRight=4;overflow=hidden;rotatable=0;points=[[0,0.5],[1,0.5]];portConstraint=eastwest;swimlaneFillColor=#ffffff;whiteSpace=wrap;fontSize=13;align=center;fillColor=none;strokeOpacity=100;fillOpacity=100;spacing=0;strokeColor=#282c33;rounded=1;absoluteArcSize=1;arcSize=7.5;strokeWidth=0.8;" parent="38" vertex="1">
                    <mxGeometry x="148.5" y="30" width="121.5" height="24" as="geometry"/>
                </mxCell>
                <mxCell id="42" value="PK" style="strokeColor=none;part=1;resizeHeight=0;align=center;verticalAlign=top;spacingLeft=4;spacingRight=4;overflow=hidden;rotatable=0;points=[[0,0.5],[1,0.5]];portConstraint=eastwest;swimlaneFillColor=#ffffff;whiteSpace=wrap;fontSize=13;fillColor=none;strokeOpacity=100;fillOpacity=100;spacing=0;rounded=1;absoluteArcSize=1;arcSize=7.5;strokeWidth=0.8;" parent="38" vertex="1">
                    <mxGeometry width="30.34476857323039" as="geometry"/>
                </mxCell>
                <mxCell id="43" value="type_id" style="shape=partialRectangle;top=0;right=0;bottom=0;part=1;resizeHeight=0;verticalAlign=top;spacingLeft=4;spacingRight=4;overflow=hidden;rotatable=0;points=[[0,0.5],[1,0.5]];portConstraint=eastwest;swimlaneFillColor=#ffffff;whiteSpace=wrap;fontSize=13;align=center;fillColor=none;strokeOpacity=100;fillOpacity=100;spacing=0;strokeColor=#282c33;rounded=1;absoluteArcSize=1;arcSize=7.5;strokeWidth=0.8;" parent="38" vertex="1">
                    <mxGeometry x="30.34476857323039" width="118.1552314267696" height="24" as="geometry"/>
                </mxCell>
                <mxCell id="44" value="int" style="shape=partialRectangle;top=0;right=0;bottom=0;part=1;resizeHeight=0;verticalAlign=top;spacingLeft=4;spacingRight=4;overflow=hidden;rotatable=0;points=[[0,0.5],[1,0.5]];portConstraint=eastwest;swimlaneFillColor=#ffffff;whiteSpace=wrap;fontSize=13;align=center;fillColor=none;strokeOpacity=100;fillOpacity=100;spacing=0;strokeColor=#282c33;rounded=1;absoluteArcSize=1;arcSize=7.5;strokeWidth=0.8;" parent="38" vertex="1">
                    <mxGeometry x="148.5" width="121.5" height="24" as="geometry"/>
                </mxCell>
                <mxCell id="45" value="Stats" style="html=1;overflow=block;blockSpacing=1;swimlane;resizeParent=1;resizeParentMax=0;resizeLast=0;collapsible=0;marginBottom=0;fontStyle=0;swimlaneFillColor=#ffffff;startSize=30;whiteSpace=wrap;fontSize=13;fillColor=#e0e0e0;spacing=0;strokeColor=#282c33;strokeOpacity=100;fillOpacity=100;rounded=1;absoluteArcSize=1;arcSize=7.5;strokeWidth=0.8;" parent="1" vertex="1">
                    <mxGeometry x="11" y="449" width="270" height="75" as="geometry"/>
                </mxCell>
                <mxCell id="46" value="PK" style="strokeColor=none;part=1;resizeHeight=0;align=center;verticalAlign=top;spacingLeft=4;spacingRight=4;overflow=hidden;rotatable=0;points=[[0,0.5],[1,0.5]];portConstraint=eastwest;swimlaneFillColor=#ffffff;whiteSpace=wrap;fontSize=13;fillColor=none;strokeOpacity=100;fillOpacity=100;spacing=0;rounded=1;absoluteArcSize=1;arcSize=7.5;strokeWidth=0.8;" parent="45" vertex="1">
                    <mxGeometry y="30" width="30.34476857323039" as="geometry"/>
                </mxCell>
                <mxCell id="47" value="stat_id" style="shape=partialRectangle;top=0;right=0;bottom=0;part=1;resizeHeight=0;verticalAlign=top;spacingLeft=4;spacingRight=4;overflow=hidden;rotatable=0;points=[[0,0.5],[1,0.5]];portConstraint=eastwest;swimlaneFillColor=#ffffff;whiteSpace=wrap;fontSize=13;align=center;fillColor=none;strokeOpacity=100;fillOpacity=100;spacing=0;strokeColor=#282c33;rounded=1;absoluteArcSize=1;arcSize=7.5;strokeWidth=0.8;" parent="45" vertex="1">
                    <mxGeometry x="30.34476857323039" y="30" width="118.1552314267696" height="24" as="geometry"/>
                </mxCell>
                <mxCell id="48" value="PK" style="shape=partialRectangle;top=0;right=0;bottom=0;part=1;resizeHeight=0;verticalAlign=top;spacingLeft=4;spacingRight=4;overflow=hidden;rotatable=0;points=[[0,0.5],[1,0.5]];portConstraint=eastwest;swimlaneFillColor=#ffffff;whiteSpace=wrap;fontSize=13;align=center;fillColor=none;strokeOpacity=100;fillOpacity=100;spacing=0;strokeColor=#282c33;rounded=1;absoluteArcSize=1;arcSize=7.5;strokeWidth=0.8;" parent="45" vertex="1">
                    <mxGeometry x="148.5" y="30" width="121.5" height="24" as="geometry"/>
                </mxCell>
                <mxCell id="49" value="" style="strokeColor=none;part=1;resizeHeight=0;align=center;verticalAlign=top;spacingLeft=4;spacingRight=4;overflow=hidden;rotatable=0;points=[[0,0.5],[1,0.5]];portConstraint=eastwest;swimlaneFillColor=#ffffff;whiteSpace=wrap;fontSize=13;fillColor=none;strokeOpacity=100;fillOpacity=100;spacing=0;rounded=1;absoluteArcSize=1;arcSize=7.5;strokeWidth=0.8;" parent="45" vertex="1">
                    <mxGeometry width="30.34476857323039" as="geometry"/>
                </mxCell>
                <mxCell id="50" value="name" style="shape=partialRectangle;top=0;right=0;bottom=0;part=1;resizeHeight=0;verticalAlign=top;spacingLeft=4;spacingRight=4;overflow=hidden;rotatable=0;points=[[0,0.5],[1,0.5]];portConstraint=eastwest;swimlaneFillColor=#ffffff;whiteSpace=wrap;fontSize=13;align=center;fillColor=none;strokeOpacity=100;fillOpacity=100;spacing=0;strokeColor=#282c33;rounded=1;absoluteArcSize=1;arcSize=7.5;strokeWidth=0.8;" parent="45" vertex="1">
                    <mxGeometry x="30.34476857323039" width="118.1552314267696" height="24" as="geometry"/>
                </mxCell>
                <mxCell id="51" value="string" style="shape=partialRectangle;top=0;right=0;bottom=0;part=1;resizeHeight=0;verticalAlign=top;spacingLeft=4;spacingRight=4;overflow=hidden;rotatable=0;points=[[0,0.5],[1,0.5]];portConstraint=eastwest;swimlaneFillColor=#ffffff;whiteSpace=wrap;fontSize=13;align=center;fillColor=none;strokeOpacity=100;fillOpacity=100;spacing=0;strokeColor=#282c33;rounded=1;absoluteArcSize=1;arcSize=7.5;strokeWidth=0.8;" parent="45" vertex="1">
                    <mxGeometry x="148.5" width="121.5" height="24" as="geometry"/>
                </mxCell>
                <mxCell id="52" value="Type" style="html=1;overflow=block;blockSpacing=1;swimlane;resizeParent=1;resizeParentMax=0;resizeLast=0;collapsible=0;marginBottom=0;fontStyle=0;swimlaneFillColor=#ffffff;startSize=30;whiteSpace=wrap;fontSize=13;fillColor=#e0e0e0;spacing=0;strokeColor=#282c33;strokeOpacity=100;fillOpacity=100;rounded=1;absoluteArcSize=1;arcSize=7.5;strokeWidth=0.8;" parent="1" vertex="1">
                    <mxGeometry x="-296" y="451" width="255" height="53" as="geometry"/>
                </mxCell>
                <mxCell id="53" value="PK" style="strokeColor=none;part=1;resizeHeight=0;align=center;verticalAlign=top;spacingLeft=4;spacingRight=4;overflow=hidden;rotatable=0;points=[[0,0.5],[1,0.5]];portConstraint=eastwest;swimlaneFillColor=#ffffff;whiteSpace=wrap;fontSize=13;fillColor=none;strokeOpacity=100;fillOpacity=100;spacing=0;rounded=1;absoluteArcSize=1;arcSize=7.5;strokeWidth=0.8;" parent="52" vertex="1">
                    <mxGeometry y="30" width="25.344768573230393" as="geometry"/>
                </mxCell>
                <mxCell id="54" value="type_id" style="shape=partialRectangle;top=0;right=0;bottom=0;part=1;resizeHeight=0;verticalAlign=top;spacingLeft=4;spacingRight=4;overflow=hidden;rotatable=0;points=[[0,0.5],[1,0.5]];portConstraint=eastwest;swimlaneFillColor=#ffffff;whiteSpace=wrap;fontSize=13;align=center;fillColor=none;strokeOpacity=100;fillOpacity=100;spacing=0;strokeColor=#282c33;rounded=1;absoluteArcSize=1;arcSize=7.5;strokeWidth=0.8;" parent="52" vertex="1">
                    <mxGeometry x="25.344768573230393" y="30" width="113.1552314267696" height="24" as="geometry"/>
                </mxCell>
                <mxCell id="55" value="int" style="shape=partialRectangle;top=0;right=0;bottom=0;part=1;resizeHeight=0;verticalAlign=top;spacingLeft=4;spacingRight=4;overflow=hidden;rotatable=0;points=[[0,0.5],[1,0.5]];portConstraint=eastwest;swimlaneFillColor=#ffffff;whiteSpace=wrap;fontSize=13;align=center;fillColor=none;strokeOpacity=100;fillOpacity=100;spacing=0;strokeColor=#282c33;rounded=1;absoluteArcSize=1;arcSize=7.5;strokeWidth=0.8;" parent="52" vertex="1">
                    <mxGeometry x="138.5" y="30" width="116.5" height="24" as="geometry"/>
                </mxCell>
                <mxCell id="56" value="Pokemon Number" style="html=1;overflow=block;blockSpacing=1;swimlane;resizeParent=1;resizeParentMax=0;resizeLast=0;collapsible=0;marginBottom=0;fontStyle=0;swimlaneFillColor=#ffffff;startSize=30;whiteSpace=wrap;fontSize=13;fillColor=#e0e0e0;spacing=0;strokeColor=#282c33;strokeOpacity=100;fillOpacity=100;rounded=1;absoluteArcSize=1;arcSize=7.5;strokeWidth=0.8;" parent="1" vertex="1">
                    <mxGeometry x="322" y="449" width="270" height="77" as="geometry"/>
                </mxCell>
                <mxCell id="57" value="PK" style="strokeColor=none;part=1;resizeHeight=0;align=center;verticalAlign=top;spacingLeft=4;spacingRight=4;overflow=hidden;rotatable=0;points=[[0,0.5],[1,0.5]];portConstraint=eastwest;swimlaneFillColor=#ffffff;whiteSpace=wrap;fontSize=13;fillColor=none;strokeOpacity=100;fillOpacity=100;spacing=0;rounded=1;absoluteArcSize=1;arcSize=7.5;strokeWidth=0.8;" parent="56" vertex="1">
                    <mxGeometry y="30" width="30.34476857323039" as="geometry"/>
                </mxCell>
                <mxCell id="58" value="dex_id" style="shape=partialRectangle;top=0;right=0;bottom=0;part=1;resizeHeight=0;verticalAlign=top;spacingLeft=4;spacingRight=4;overflow=hidden;rotatable=0;points=[[0,0.5],[1,0.5]];portConstraint=eastwest;swimlaneFillColor=#ffffff;whiteSpace=wrap;fontSize=13;align=center;fillColor=none;strokeOpacity=100;fillOpacity=100;spacing=0;strokeColor=#282c33;rounded=1;absoluteArcSize=1;arcSize=7.5;strokeWidth=0.8;" parent="56" vertex="1">
                    <mxGeometry x="30.34476857323039" y="30" width="118.1552314267696" height="24" as="geometry"/>
                </mxCell>
                <mxCell id="59" value="int" style="shape=partialRectangle;top=0;right=0;bottom=0;part=1;resizeHeight=0;verticalAlign=top;spacingLeft=4;spacingRight=4;overflow=hidden;rotatable=0;points=[[0,0.5],[1,0.5]];portConstraint=eastwest;swimlaneFillColor=#ffffff;whiteSpace=wrap;fontSize=13;align=center;fillColor=none;strokeOpacity=100;fillOpacity=100;spacing=0;strokeColor=#282c33;rounded=1;absoluteArcSize=1;arcSize=7.5;strokeWidth=0.8;" parent="56" vertex="1">
                    <mxGeometry x="148.5" y="30" width="121.5" height="24" as="geometry"/>
                </mxCell>
                <mxCell id="60" value="" style="strokeColor=none;part=1;resizeHeight=0;align=center;verticalAlign=top;spacingLeft=4;spacingRight=4;overflow=hidden;rotatable=0;points=[[0,0.5],[1,0.5]];portConstraint=eastwest;swimlaneFillColor=#ffffff;whiteSpace=wrap;fontSize=13;fillColor=none;strokeOpacity=100;fillOpacity=100;spacing=0;rounded=1;absoluteArcSize=1;arcSize=7.5;strokeWidth=0.8;" parent="56" vertex="1">
                    <mxGeometry width="30.34476857323039" as="geometry"/>
                </mxCell>
                <mxCell id="61" value="dex_name" style="shape=partialRectangle;top=0;right=0;bottom=0;part=1;resizeHeight=0;verticalAlign=top;spacingLeft=4;spacingRight=4;overflow=hidden;rotatable=0;points=[[0,0.5],[1,0.5]];portConstraint=eastwest;swimlaneFillColor=#ffffff;whiteSpace=wrap;fontSize=13;align=center;fillColor=none;strokeOpacity=100;fillOpacity=100;spacing=0;strokeColor=#282c33;rounded=1;absoluteArcSize=1;arcSize=7.5;strokeWidth=0.8;" parent="56" vertex="1">
                    <mxGeometry x="30.34476857323039" width="118.1552314267696" height="24" as="geometry"/>
                </mxCell>
                <mxCell id="62" value="string" style="shape=partialRectangle;top=0;right=0;bottom=0;part=1;resizeHeight=0;verticalAlign=top;spacingLeft=4;spacingRight=4;overflow=hidden;rotatable=0;points=[[0,0.5],[1,0.5]];portConstraint=eastwest;swimlaneFillColor=#ffffff;whiteSpace=wrap;fontSize=13;align=center;fillColor=none;strokeOpacity=100;fillOpacity=100;spacing=0;strokeColor=#282c33;rounded=1;absoluteArcSize=1;arcSize=7.5;strokeWidth=0.8;" parent="56" vertex="1">
                    <mxGeometry x="148.5" width="121.5" height="24" as="geometry"/>
                </mxCell>
                <mxCell id="63" value="" style="html=1;jettySize=18;whiteSpace=wrap;fontSize=13;strokeColor=#3a414a;strokeOpacity=100;strokeWidth=0.8;rounded=1;arcSize=24;edgeStyle=orthogonalEdgeStyle;startArrow=ERzeroToMany;startSize=10;endArrow=ERmandOne;endSize=10;exitX=0.5;exitY=-0.005;exitPerimeter=0;entryX=0.928;entryY=1.005;entryPerimeter=0;lucidId=-Un2UJVz6f3C;" parent="1" source="2" target="9" edge="1">
                    <mxGeometry width="100" height="100" relative="1" as="geometry">
                        <Array as="points"/>
                    </mxGeometry>
                </mxCell>
                <mxCell id="64" value="PokemonMove" style="html=1;overflow=block;blockSpacing=1;swimlane;resizeParent=1;resizeParentMax=0;resizeLast=0;collapsible=0;marginBottom=0;fontStyle=0;swimlaneFillColor=#ffffff;startSize=30;whiteSpace=wrap;fontSize=13;fillColor=#e0e0e0;spacing=0;strokeColor=#282c33;strokeOpacity=100;fillOpacity=100;rounded=1;absoluteArcSize=1;arcSize=7.5;strokeWidth=0.8;" parent="1" vertex="1">
                    <mxGeometry x="885" y="405" width="270" height="77" as="geometry"/>
                </mxCell>
                <mxCell id="65" value="PK" style="strokeColor=none;part=1;resizeHeight=0;align=center;verticalAlign=top;spacingLeft=4;spacingRight=4;overflow=hidden;rotatable=0;points=[[0,0.5],[1,0.5]];portConstraint=eastwest;swimlaneFillColor=#ffffff;whiteSpace=wrap;fontSize=13;fillColor=none;strokeOpacity=100;fillOpacity=100;spacing=0;rounded=1;absoluteArcSize=1;arcSize=7.5;strokeWidth=0.8;" parent="64" vertex="1">
                    <mxGeometry y="30" width="30.34476857323039" as="geometry"/>
                </mxCell>
                <mxCell id="66" value="pokemon_id" style="shape=partialRectangle;top=0;right=0;bottom=0;part=1;resizeHeight=0;verticalAlign=top;spacingLeft=4;spacingRight=4;overflow=hidden;rotatable=0;points=[[0,0.5],[1,0.5]];portConstraint=eastwest;swimlaneFillColor=#ffffff;whiteSpace=wrap;fontSize=13;align=center;fillColor=none;strokeOpacity=100;fillOpacity=100;spacing=0;strokeColor=#282c33;rounded=1;absoluteArcSize=1;arcSize=7.5;strokeWidth=0.8;" parent="64" vertex="1">
                    <mxGeometry x="30.34476857323039" y="30" width="118.1552314267696" height="24" as="geometry"/>
                </mxCell>
                <mxCell id="67" value="int" style="shape=partialRectangle;top=0;right=0;bottom=0;part=1;resizeHeight=0;verticalAlign=top;spacingLeft=4;spacingRight=4;overflow=hidden;rotatable=0;points=[[0,0.5],[1,0.5]];portConstraint=eastwest;swimlaneFillColor=#ffffff;whiteSpace=wrap;fontSize=13;align=center;fillColor=none;strokeOpacity=100;fillOpacity=100;spacing=0;strokeColor=#282c33;rounded=1;absoluteArcSize=1;arcSize=7.5;strokeWidth=0.8;" parent="64" vertex="1">
                    <mxGeometry x="148.5" y="30" width="121.5" height="24" as="geometry"/>
                </mxCell>
                <mxCell id="68" value="" style="strokeColor=none;part=1;resizeHeight=0;align=center;verticalAlign=top;spacingLeft=4;spacingRight=4;overflow=hidden;rotatable=0;points=[[0,0.5],[1,0.5]];portConstraint=eastwest;swimlaneFillColor=#ffffff;whiteSpace=wrap;fontSize=13;fillColor=none;strokeOpacity=100;fillOpacity=100;spacing=0;rounded=1;absoluteArcSize=1;arcSize=7.5;strokeWidth=0.8;" parent="64" vertex="1">
                    <mxGeometry width="30.34476857323039" as="geometry"/>
                </mxCell>
                <mxCell id="69" value="move_id" style="shape=partialRectangle;top=0;right=0;bottom=0;part=1;resizeHeight=0;verticalAlign=top;spacingLeft=4;spacingRight=4;overflow=hidden;rotatable=0;points=[[0,0.5],[1,0.5]];portConstraint=eastwest;swimlaneFillColor=#ffffff;whiteSpace=wrap;fontSize=13;align=center;fillColor=none;strokeOpacity=100;fillOpacity=100;spacing=0;strokeColor=#282c33;rounded=1;absoluteArcSize=1;arcSize=7.5;strokeWidth=0.8;" parent="64" vertex="1">
                    <mxGeometry x="30.34476857323039" width="118.1552314267696" height="24" as="geometry"/>
                </mxCell>
                <mxCell id="70" value="int" style="shape=partialRectangle;top=0;right=0;bottom=0;part=1;resizeHeight=0;verticalAlign=top;spacingLeft=4;spacingRight=4;overflow=hidden;rotatable=0;points=[[0,0.5],[1,0.5]];portConstraint=eastwest;swimlaneFillColor=#ffffff;whiteSpace=wrap;fontSize=13;align=center;fillColor=none;strokeOpacity=100;fillOpacity=100;spacing=0;strokeColor=#282c33;rounded=1;absoluteArcSize=1;arcSize=7.5;strokeWidth=0.8;" parent="64" vertex="1">
                    <mxGeometry x="148.5" width="121.5" height="24" as="geometry"/>
                </mxCell>
                <mxCell id="71" value="Moves" style="html=1;overflow=block;blockSpacing=1;swimlane;resizeParent=1;resizeParentMax=0;resizeLast=0;collapsible=0;marginBottom=0;fontStyle=0;swimlaneFillColor=#ffffff;startSize=30;whiteSpace=wrap;fontSize=13;fillColor=#e0e0e0;spacing=0;strokeColor=#282c33;strokeOpacity=100;fillOpacity=100;rounded=1;absoluteArcSize=1;arcSize=7.5;strokeWidth=0.8;" parent="1" vertex="1">
                    <mxGeometry x="240" y="630" width="270" height="77" as="geometry"/>
                </mxCell>
                <mxCell id="72" value="PK" style="strokeColor=none;part=1;resizeHeight=0;align=center;verticalAlign=top;spacingLeft=4;spacingRight=4;overflow=hidden;rotatable=0;points=[[0,0.5],[1,0.5]];portConstraint=eastwest;swimlaneFillColor=#ffffff;whiteSpace=wrap;fontSize=13;fillColor=none;strokeOpacity=100;fillOpacity=100;spacing=0;rounded=1;absoluteArcSize=1;arcSize=7.5;strokeWidth=0.8;" parent="71" vertex="1">
                    <mxGeometry y="30" width="30.34476857323039" as="geometry"/>
                </mxCell>
                <mxCell id="73" value="move_id" style="shape=partialRectangle;top=0;right=0;bottom=0;part=1;resizeHeight=0;verticalAlign=top;spacingLeft=4;spacingRight=4;overflow=hidden;rotatable=0;points=[[0,0.5],[1,0.5]];portConstraint=eastwest;swimlaneFillColor=#ffffff;whiteSpace=wrap;fontSize=13;align=center;fillColor=none;strokeOpacity=100;fillOpacity=100;spacing=0;strokeColor=#282c33;rounded=1;absoluteArcSize=1;arcSize=7.5;strokeWidth=0.8;" parent="71" vertex="1">
                    <mxGeometry x="30.34476857323039" y="30" width="118.1552314267696" height="24" as="geometry"/>
                </mxCell>
                <mxCell id="74" value="PK" style="shape=partialRectangle;top=0;right=0;bottom=0;part=1;resizeHeight=0;verticalAlign=top;spacingLeft=4;spacingRight=4;overflow=hidden;rotatable=0;points=[[0,0.5],[1,0.5]];portConstraint=eastwest;swimlaneFillColor=#ffffff;whiteSpace=wrap;fontSize=13;align=center;fillColor=none;strokeOpacity=100;fillOpacity=100;spacing=0;strokeColor=#282c33;rounded=1;absoluteArcSize=1;arcSize=7.5;strokeWidth=0.8;" parent="71" vertex="1">
                    <mxGeometry x="148.5" y="30" width="121.5" height="24" as="geometry"/>
                </mxCell>
                <mxCell id="75" value="" style="strokeColor=none;part=1;resizeHeight=0;align=center;verticalAlign=top;spacingLeft=4;spacingRight=4;overflow=hidden;rotatable=0;points=[[0,0.5],[1,0.5]];portConstraint=eastwest;swimlaneFillColor=#ffffff;whiteSpace=wrap;fontSize=13;fillColor=none;strokeOpacity=100;fillOpacity=100;spacing=0;rounded=1;absoluteArcSize=1;arcSize=7.5;strokeWidth=0.8;" parent="71" vertex="1">
                    <mxGeometry width="30.34476857323039" as="geometry"/>
                </mxCell>
                <mxCell id="76" value="name" style="shape=partialRectangle;top=0;right=0;bottom=0;part=1;resizeHeight=0;verticalAlign=top;spacingLeft=4;spacingRight=4;overflow=hidden;rotatable=0;points=[[0,0.5],[1,0.5]];portConstraint=eastwest;swimlaneFillColor=#ffffff;whiteSpace=wrap;fontSize=13;align=center;fillColor=none;strokeOpacity=100;fillOpacity=100;spacing=0;strokeColor=#282c33;rounded=1;absoluteArcSize=1;arcSize=7.5;strokeWidth=0.8;" parent="71" vertex="1">
                    <mxGeometry x="30.34476857323039" width="118.1552314267696" height="24" as="geometry"/>
                </mxCell>
                <mxCell id="77" value="string" style="shape=partialRectangle;top=0;right=0;bottom=0;part=1;resizeHeight=0;verticalAlign=top;spacingLeft=4;spacingRight=4;overflow=hidden;rotatable=0;points=[[0,0.5],[1,0.5]];portConstraint=eastwest;swimlaneFillColor=#ffffff;whiteSpace=wrap;fontSize=13;align=center;fillColor=none;strokeOpacity=100;fillOpacity=100;spacing=0;strokeColor=#282c33;rounded=1;absoluteArcSize=1;arcSize=7.5;strokeWidth=0.8;" parent="71" vertex="1">
                    <mxGeometry x="148.5" width="121.5" height="24" as="geometry"/>
                </mxCell>
                <mxCell id="78" value="" style="html=1;jettySize=18;whiteSpace=wrap;fontSize=13;strokeColor=#3a414a;strokeOpacity=100;strokeWidth=0.8;rounded=1;arcSize=24;edgeStyle=orthogonalEdgeStyle;startArrow=ERmandOne;startSize=10;endArrow=ERmandOne;endSize=10;exitX=0.5;exitY=-0.007;exitPerimeter=0;entryX=-0.001;entryY=0.539;entryPerimeter=0;lucidId=ITn2qun0bLVZ;" parent="1" source="16" target="9" edge="1">
                    <mxGeometry width="100" height="100" relative="1" as="geometry">
                        <Array as="points"/>
                    </mxGeometry>
                </mxCell>
                <mxCell id="79" value="" style="html=1;jettySize=18;whiteSpace=wrap;fontSize=13;strokeColor=#3a414a;strokeOpacity=100;strokeWidth=0.8;rounded=1;arcSize=24;edgeStyle=orthogonalEdgeStyle;startArrow=ERmandOne;startSize=10;endArrow=ERmandOne;endSize=10;exitX=0.5;exitY=-0.007;exitPerimeter=0;entryX=-0.001;entryY=0.539;entryPerimeter=0;lucidId=vUn25wXdmSSH;" parent="1" source="20" target="9" edge="1">
                    <mxGeometry width="100" height="100" relative="1" as="geometry">
                        <Array as="points"/>
                    </mxGeometry>
                </mxCell>
                <mxCell id="80" value="" style="html=1;jettySize=18;whiteSpace=wrap;fontSize=13;strokeColor=#3a414a;strokeOpacity=100;strokeWidth=0.8;rounded=1;arcSize=24;edgeStyle=orthogonalEdgeStyle;startArrow=ERzeroToMany;startSize=10;endArrow=ERmandOne;endSize=10;exitX=0.5;exitY=-0.005;exitPerimeter=0;entryX=1.001;entryY=0.539;entryPerimeter=0;lucidId=IZn2Gkw5LjKw;" parent="1" source="31" target="9" edge="1">
                    <mxGeometry width="100" height="100" relative="1" as="geometry">
                        <Array as="points"/>
                    </mxGeometry>
                </mxCell>
                <mxCell id="81" value="" style="html=1;jettySize=18;whiteSpace=wrap;fontSize=13;strokeColor=#3a414a;strokeOpacity=100;strokeWidth=0.8;rounded=1;arcSize=24;edgeStyle=orthogonalEdgeStyle;startArrow=ERmandOne;startSize=10;endArrow=ERzeroToMany;endSize=10;exitX=-0.001;exitY=0.539;exitPerimeter=0;entryX=0.5;entryY=-0.005;entryPerimeter=0;lucidId=MVn2XHEwbYw2;" parent="1" source="9" target="24" edge="1">
                    <mxGeometry width="100" height="100" relative="1" as="geometry">
                        <Array as="points"/>
                    </mxGeometry>
                </mxCell>
                <mxCell id="82" value="" style="html=1;jettySize=18;whiteSpace=wrap;fontSize=13;strokeColor=#3a414a;strokeOpacity=100;strokeWidth=0.8;rounded=1;arcSize=24;edgeStyle=orthogonalEdgeStyle;startArrow=ERzeroToMany;startSize=10;endArrow=ERmandOne;endSize=10;exitX=0.227;exitY=-0.005;exitPerimeter=0;entryX=1.001;entryY=0.539;entryPerimeter=0;lucidId=f0n201_YiHkn;" parent="1" source="38" target="9" edge="1">
                    <mxGeometry width="100" height="100" relative="1" as="geometry">
                        <Array as="points"/>
                    </mxGeometry>
                </mxCell>
                <mxCell id="83" value="" style="html=1;jettySize=18;whiteSpace=wrap;fontSize=13;strokeColor=#3a414a;strokeOpacity=100;strokeWidth=0.8;rounded=1;arcSize=24;edgeStyle=orthogonalEdgeStyle;startArrow=ERzeroToMany;startSize=10;endArrow=none;exitX=0.729;exitY=-0.005;exitPerimeter=0;lucidId=c1n2AUry3jwx;" parent="1" source="38" edge="1">
                    <mxGeometry width="100" height="100" relative="1" as="geometry">
                        <Array as="points"/>
                        <mxPoint x="700" y="26" as="targetPoint"/>
                    </mxGeometry>
                </mxCell>
                <mxCell id="84" value="" style="html=1;jettySize=18;whiteSpace=wrap;fontSize=13;strokeColor=#3a414a;strokeOpacity=100;strokeWidth=0.8;rounded=1;arcSize=24;edgeStyle=orthogonalEdgeStyle;startArrow=ERzeroToMany;startSize=10;endArrow=ERmandOne;endSize=10;exitX=0.5;exitY=-0.005;exitPerimeter=0;entryX=1.001;entryY=0.195;entryPerimeter=0;lucidId=S1n2_adFOmvQ;" parent="1" source="64" target="9" edge="1">
                    <mxGeometry width="100" height="100" relative="1" as="geometry">
                        <Array as="points"/>
                    </mxGeometry>
                </mxCell>
                <mxCell id="85" value="" style="html=1;jettySize=18;whiteSpace=wrap;fontSize=13;strokeColor=#3a414a;strokeOpacity=100;strokeWidth=0.8;rounded=1;arcSize=24;edgeStyle=orthogonalEdgeStyle;startArrow=ERmandOne;startSize=10;endArrow=ERzeroToMany;endSize=10;exitX=0.5;exitY=-0.005;exitPerimeter=0;entryX=0.5;entryY=1.005;entryPerimeter=0;lucidId=93n24RBoezup;" parent="1" source="45" target="2" edge="1">
                    <mxGeometry width="100" height="100" relative="1" as="geometry">
                        <Array as="points"/>
                    </mxGeometry>
                </mxCell>
                <mxCell id="86" value="" style="html=1;jettySize=18;whiteSpace=wrap;fontSize=13;strokeColor=#3a414a;strokeOpacity=100;strokeWidth=0.8;rounded=1;arcSize=24;edgeStyle=orthogonalEdgeStyle;startArrow=ERmandOne;startSize=10;endArrow=ERzeroToMany;endSize=10;exitX=0.5;exitY=-0.007;exitPerimeter=0;entryX=0.5;entryY=1.005;entryPerimeter=0;lucidId=T3n2yZclZkE5;" parent="1" source="52" target="24" edge="1">
                    <mxGeometry width="100" height="100" relative="1" as="geometry">
                        <Array as="points"/>
                    </mxGeometry>
                </mxCell>
                <mxCell id="87" value="" style="html=1;jettySize=18;whiteSpace=wrap;fontSize=13;strokeColor=#3a414a;strokeOpacity=100;strokeWidth=0.8;rounded=1;arcSize=24;edgeStyle=orthogonalEdgeStyle;startArrow=ERmandOne;startSize=10;endArrow=ERzeroToMany;endSize=10;exitX=0.5;exitY=-0.005;exitPerimeter=0;entryX=0.5;entryY=1.005;entryPerimeter=0;lucidId=h4n2VEfxv-EP;" parent="1" source="56" target="31" edge="1">
                    <mxGeometry width="100" height="100" relative="1" as="geometry">
                        <Array as="points"/>
                    </mxGeometry>
                </mxCell>
                <mxCell id="88" value="" style="html=1;jettySize=18;whiteSpace=wrap;fontSize=13;strokeColor=#3a414a;strokeOpacity=100;strokeWidth=0.8;rounded=1;arcSize=24;edgeStyle=orthogonalEdgeStyle;startArrow=ERzeroToMany;startSize=10;endArrow=ERmandOne;endSize=10;exitX=-0.001;exitY=0.539;exitPerimeter=0;entryX=0.5;entryY=1.007;entryPerimeter=0;lucidId=D4n2z~lBauHO;" parent="1" source="71" target="52" edge="1">
                    <mxGeometry width="100" height="100" relative="1" as="geometry">
                        <Array as="points"/>
                    </mxGeometry>
                </mxCell>
                <mxCell id="89" value="" style="html=1;jettySize=18;whiteSpace=wrap;fontSize=13;strokeColor=#3a414a;strokeOpacity=100;strokeWidth=0.8;rounded=1;arcSize=24;edgeStyle=orthogonalEdgeStyle;startArrow=ERmandOne;startSize=10;endArrow=ERzeroToMany;endSize=10;exitX=1.001;exitY=0.539;exitPerimeter=0;entryX=0.5;entryY=1.005;entryPerimeter=0;lucidId=U4n2AQSznP8K;" parent="1" source="71" target="64" edge="1">
                    <mxGeometry width="100" height="100" relative="1" as="geometry">
                        <Array as="points"/>
                    </mxGeometry>
                </mxCell>
                <mxCell id="90" value="has" style="html=1;overflow=block;blockSpacing=1;whiteSpace=wrap;fontSize=13.5;align=center;spacing=0;strokeOpacity=100;rounded=1;absoluteArcSize=1;arcSize=12;fillColor=#unset;strokeWidth=1.5;strokeColor=none;lucidId=C5n2eSljoK8z;" parent="1" vertex="1">
                    <mxGeometry x="-825" y="165" width="60" height="20" as="geometry"/>
                </mxCell>
                <mxCell id="91" value="has" style="html=1;overflow=block;blockSpacing=1;whiteSpace=wrap;fontSize=13.5;align=center;spacing=0;strokeOpacity=100;rounded=1;absoluteArcSize=1;arcSize=12;fillColor=#unset;strokeWidth=1.5;strokeColor=none;lucidId=15n2Bo-Q.RUt;" parent="1" vertex="1">
                    <mxGeometry x="-540" y="165" width="60" height="20" as="geometry"/>
                </mxCell>
                <mxCell id="92" value="is_of" style="html=1;overflow=block;blockSpacing=1;whiteSpace=wrap;fontSize=13.5;align=center;spacing=0;strokeOpacity=100;rounded=1;absoluteArcSize=1;arcSize=12;fillColor=#unset;strokeWidth=1.5;strokeColor=none;lucidId=55n2iCgUvC3O;" parent="1" vertex="1">
                    <mxGeometry x="-285" y="165" width="60" height="20" as="geometry"/>
                </mxCell>
                <mxCell id="93" value="has" style="html=1;overflow=block;blockSpacing=1;whiteSpace=wrap;fontSize=13.5;align=center;spacing=0;strokeOpacity=100;rounded=1;absoluteArcSize=1;arcSize=12;fillColor=#unset;strokeWidth=1.5;strokeColor=none;lucidId=-5n2hZMH2hUx;" parent="1" vertex="1">
                    <mxGeometry x="90" y="180" width="60" height="20" as="geometry"/>
                </mxCell>
                <mxCell id="94" value="listed_in" style="html=1;overflow=block;blockSpacing=1;whiteSpace=wrap;fontSize=13.5;align=center;spacing=0;strokeOpacity=100;rounded=1;absoluteArcSize=1;arcSize=12;fillColor=#unset;strokeWidth=1.5;strokeColor=none;lucidId=a6n21iWMBHIv;" parent="1" vertex="1">
                    <mxGeometry x="379" y="164" width="60" height="20" as="geometry"/>
                </mxCell>
                <mxCell id="95" value="evolves from" style="html=1;overflow=block;blockSpacing=1;whiteSpace=wrap;fontSize=13.5;align=center;spacing=0;strokeOpacity=100;rounded=1;absoluteArcSize=1;arcSize=12;fillColor=#unset;strokeWidth=1.5;strokeColor=none;lucidId=i6n2BuSMLXBo;" parent="1" vertex="1">
                    <mxGeometry x="675" y="145" width="60" height="20" as="geometry"/>
                </mxCell>
                <mxCell id="96" value="evolves to" style="html=1;overflow=block;blockSpacing=1;whiteSpace=wrap;fontSize=13.5;align=center;spacing=0;strokeOpacity=100;rounded=1;absoluteArcSize=1;arcSize=12;fillColor=#unset;strokeWidth=1.5;strokeColor=none;lucidId=t6n2lHApfSDV;" parent="1" vertex="1">
                    <mxGeometry x="825" y="144" width="60" height="20" as="geometry"/>
                </mxCell>
                <mxCell id="97" value="learns" style="html=1;overflow=block;blockSpacing=1;whiteSpace=wrap;fontSize=13.5;align=center;spacing=0;strokeOpacity=100;rounded=1;absoluteArcSize=1;arcSize=12;fillColor=#unset;strokeWidth=1.5;strokeColor=none;lucidId=F6n2_5ryEkTk;" parent="1" vertex="1">
                    <mxGeometry x="1020" y="330" width="60" height="20" as="geometry"/>
                </mxCell>
                <mxCell id="98" value="move" style="html=1;overflow=block;blockSpacing=1;whiteSpace=wrap;fontSize=13.5;align=center;spacing=0;strokeOpacity=100;rounded=1;absoluteArcSize=1;arcSize=12;fillColor=#unset;strokeWidth=1.5;strokeColor=none;lucidId=46n2Jx~cLE10;" parent="1" vertex="1">
                    <mxGeometry x="1005" y="525" width="60" height="20" as="geometry"/>
                </mxCell>
                <mxCell id="99" value="dex" style="html=1;overflow=block;blockSpacing=1;whiteSpace=wrap;fontSize=13.5;align=center;spacing=0;strokeOpacity=100;rounded=1;absoluteArcSize=1;arcSize=12;fillColor=#unset;strokeWidth=1.5;strokeColor=none;lucidId=86n2DmCSvP95;" parent="1" vertex="1">
                    <mxGeometry x="427" y="360" width="60" height="20" as="geometry"/>
                </mxCell>
                <mxCell id="100" value="stat" style="html=1;overflow=block;blockSpacing=1;whiteSpace=wrap;fontSize=13.5;align=center;spacing=0;strokeOpacity=100;rounded=1;absoluteArcSize=1;arcSize=12;fillColor=#unset;strokeWidth=1.5;strokeColor=none;lucidId=.6n2YHtDnQnl;" parent="1" vertex="1">
                    <mxGeometry x="135" y="375" width="60" height="20" as="geometry"/>
                </mxCell>
                <mxCell id="101" value="is" style="html=1;overflow=block;blockSpacing=1;whiteSpace=wrap;fontSize=13.5;align=center;spacing=0;strokeOpacity=100;rounded=1;absoluteArcSize=1;arcSize=12;fillColor=#unset;strokeWidth=1.5;strokeColor=none;lucidId=f7n2z.V6ZqRH;" parent="1" vertex="1">
                    <mxGeometry x="-210" y="360" width="60" height="20" as="geometry"/>
                </mxCell>
                <mxCell id="102" value="is type of" style="html=1;overflow=block;blockSpacing=1;whiteSpace=wrap;fontSize=13.5;align=center;spacing=0;strokeOpacity=100;rounded=1;absoluteArcSize=1;arcSize=12;fillColor=#unset;strokeWidth=1.5;strokeColor=none;lucidId=K7n2kCp2Q5Ig;" parent="1" vertex="1">
                    <mxGeometry x="-225" y="630" width="60" height="20" as="geometry"/>
                </mxCell>
            </root>
        </mxGraphModel>
    </diagram>
</mxfile>